<svg xmlns="http://www.w3.org/2000/svg" xmlns:xlink="http://www.w3.org/1999/xlink" width="500" zoomAndPan="magnify" viewBox="0 0 375 374.999991" height="500" preserveAspectRatio="xMidYMid meet" version="1.0"><defs><clipPath id="c87af4717d"><path d="M 19.820312 9.003906 L 360.320312 9.003906 L 360.320312 349.503906 L 19.820312 349.503906 Z M 19.820312 9.003906 " clip-rule="nonzero"/></clipPath><clipPath id="0d1b7623eb"><path d="M 48.320312 37.5 L 331.820312 37.5 L 331.820312 321 L 48.320312 321 Z M 48.320312 37.5 " clip-rule="nonzero"/></clipPath><clipPath id="55f59148a4"><path d="M 89.261719 31.769531 L 323.261719 31.769531 L 323.261719 265.769531 L 89.261719 265.769531 Z M 89.261719 31.769531 " clip-rule="nonzero"/></clipPath></defs><g clip-path="url(#c87af4717d)"><path fill="#dfeaff" d="M 360.167969 179.175781 C 360.167969 181.960938 360.101562 184.746094 359.964844 187.527344 C 359.828125 190.308594 359.621094 193.085938 359.347656 195.855469 C 359.078125 198.628906 358.734375 201.390625 358.328125 204.144531 C 357.917969 206.902344 357.441406 209.644531 356.898438 212.375 C 356.355469 215.105469 355.746094 217.824219 355.070312 220.523438 C 354.390625 223.226562 353.648438 225.910156 352.839844 228.574219 C 352.03125 231.238281 351.160156 233.882812 350.222656 236.503906 C 349.28125 239.128906 348.28125 241.726562 347.214844 244.296875 C 346.148438 246.871094 345.019531 249.417969 343.832031 251.933594 C 342.640625 254.453125 341.386719 256.9375 340.074219 259.394531 C 338.761719 261.851562 337.390625 264.273438 335.957031 266.664062 C 334.527344 269.050781 333.035156 271.402344 331.488281 273.71875 C 329.941406 276.035156 328.339844 278.3125 326.679688 280.546875 C 325.019531 282.785156 323.308594 284.980469 321.542969 287.132812 C 319.773438 289.285156 317.957031 291.394531 316.085938 293.457031 C 314.214844 295.519531 312.296875 297.539062 310.324219 299.507812 C 308.355469 301.476562 306.339844 303.394531 304.277344 305.265625 C 302.214844 307.136719 300.105469 308.957031 297.953125 310.722656 C 295.800781 312.488281 293.605469 314.203125 291.367188 315.859375 C 289.128906 317.519531 286.855469 319.121094 284.539062 320.671875 C 282.222656 322.21875 279.871094 323.707031 277.480469 325.140625 C 275.09375 326.570312 272.671875 327.941406 270.214844 329.253906 C 267.757812 330.570312 265.269531 331.820312 262.753906 333.011719 C 260.234375 334.203125 257.691406 335.332031 255.117188 336.394531 C 252.542969 337.460938 249.945312 338.464844 247.324219 339.402344 C 244.703125 340.339844 242.058594 341.214844 239.394531 342.023438 C 236.730469 342.832031 234.046875 343.574219 231.34375 344.25 C 228.640625 344.925781 225.925781 345.535156 223.195312 346.078125 C 220.460938 346.625 217.71875 347.097656 214.964844 347.507812 C 212.210938 347.917969 209.445312 348.257812 206.675781 348.53125 C 203.902344 348.804688 201.125 349.007812 198.34375 349.144531 C 195.5625 349.28125 192.78125 349.351562 189.996094 349.351562 C 187.210938 349.351562 184.425781 349.28125 181.644531 349.144531 C 178.863281 349.007812 176.085938 348.804688 173.316406 348.53125 C 170.542969 348.257812 167.78125 347.917969 165.023438 347.507812 C 162.269531 347.097656 159.527344 346.625 156.796875 346.078125 C 154.0625 345.535156 151.347656 344.925781 148.644531 344.25 C 145.945312 343.574219 143.261719 342.832031 140.597656 342.023438 C 137.929688 341.214844 135.289062 340.339844 132.664062 339.402344 C 130.042969 338.464844 127.445312 337.460938 124.871094 336.394531 C 122.300781 335.332031 119.753906 334.203125 117.234375 333.011719 C 114.71875 331.820312 112.230469 330.570312 109.777344 329.253906 C 107.320312 327.941406 104.898438 326.570312 102.507812 325.140625 C 100.121094 323.707031 97.765625 322.21875 95.453125 320.671875 C 93.136719 319.121094 90.859375 317.519531 88.621094 315.859375 C 86.386719 314.203125 84.191406 312.488281 82.039062 310.722656 C 79.886719 308.957031 77.777344 307.136719 75.714844 305.265625 C 73.648438 303.394531 71.632812 301.476562 69.664062 299.507812 C 67.695312 297.539062 65.773438 295.519531 63.90625 293.457031 C 62.035156 291.394531 60.214844 289.285156 58.449219 287.132812 C 56.683594 284.980469 54.96875 282.785156 53.308594 280.546875 C 51.652344 278.3125 50.046875 276.035156 48.5 273.71875 C 46.953125 271.402344 45.464844 269.050781 44.03125 266.664062 C 42.601562 264.273438 41.226562 261.851562 39.914062 259.394531 C 38.601562 256.9375 37.351562 254.453125 36.160156 251.933594 C 34.96875 249.417969 33.839844 246.871094 32.773438 244.296875 C 31.710938 241.726562 30.707031 239.128906 29.769531 236.503906 C 28.832031 233.882812 27.957031 231.238281 27.148438 228.574219 C 26.339844 225.910156 25.597656 223.226562 24.921875 220.523438 C 24.246094 217.824219 23.632812 215.105469 23.089844 212.375 C 22.546875 209.644531 22.070312 206.902344 21.664062 204.144531 C 21.253906 201.390625 20.914062 198.628906 20.640625 195.855469 C 20.367188 193.085938 20.164062 190.308594 20.027344 187.527344 C 19.890625 184.746094 19.820312 181.960938 19.820312 179.175781 C 19.820312 176.390625 19.890625 173.609375 20.027344 170.824219 C 20.164062 168.042969 20.367188 165.269531 20.640625 162.496094 C 20.914062 159.722656 21.253906 156.960938 21.664062 154.207031 C 22.070312 151.453125 22.546875 148.707031 23.089844 145.976562 C 23.632812 143.246094 24.246094 140.527344 24.921875 137.828125 C 25.597656 135.125 26.339844 132.441406 27.148438 129.777344 C 27.957031 127.113281 28.832031 124.46875 29.769531 121.847656 C 30.707031 119.222656 31.710938 116.625 32.773438 114.054688 C 33.839844 111.480469 34.96875 108.933594 36.160156 106.417969 C 37.351562 103.898438 38.601562 101.414062 39.914062 98.957031 C 41.226562 96.5 42.601562 94.078125 44.03125 91.6875 C 45.464844 89.300781 46.953125 86.949219 48.5 84.632812 C 50.046875 82.316406 51.652344 80.039062 53.308594 77.804688 C 54.96875 75.566406 56.683594 73.371094 58.449219 71.21875 C 60.214844 69.066406 62.035156 66.957031 63.90625 64.894531 C 65.773438 62.832031 67.695312 60.8125 69.664062 58.84375 C 71.632812 56.875 73.648438 54.957031 75.714844 53.085938 C 77.777344 51.214844 79.886719 49.398438 82.039062 47.628906 C 84.191406 45.863281 86.386719 44.148438 88.621094 42.492188 C 90.859375 40.832031 93.136719 39.230469 95.453125 37.679688 C 97.765625 36.132812 100.121094 34.644531 102.507812 33.214844 C 104.898438 31.78125 107.320312 30.410156 109.777344 29.097656 C 112.230469 27.78125 114.71875 26.53125 117.234375 25.339844 C 119.753906 24.148438 122.300781 23.023438 124.871094 21.957031 C 127.445312 20.890625 130.042969 19.886719 132.664062 18.949219 C 135.289062 18.011719 137.929688 17.136719 140.597656 16.328125 C 143.261719 15.519531 145.945312 14.777344 148.644531 14.101562 C 151.347656 13.425781 154.0625 12.816406 156.796875 12.273438 C 159.527344 11.730469 162.269531 11.253906 165.023438 10.84375 C 167.78125 10.433594 170.542969 10.09375 173.316406 9.820312 C 176.085938 9.546875 178.863281 9.34375 181.644531 9.207031 C 184.425781 9.070312 187.210938 9.003906 189.996094 9.003906 C 192.78125 9.003906 195.5625 9.070312 198.34375 9.207031 C 201.125 9.34375 203.902344 9.546875 206.675781 9.820312 C 209.445312 10.09375 212.210938 10.433594 214.964844 10.84375 C 217.71875 11.253906 220.460938 11.730469 223.195312 12.273438 C 225.925781 12.816406 228.640625 13.425781 231.34375 14.101562 C 234.046875 14.777344 236.730469 15.519531 239.394531 16.328125 C 242.058594 17.136719 244.703125 18.011719 247.324219 18.949219 C 249.945312 19.886719 252.542969 20.890625 255.117188 21.957031 C 257.691406 23.023438 260.234375 24.148438 262.753906 25.339844 C 265.269531 26.53125 267.757812 27.78125 270.214844 29.097656 C 272.671875 30.410156 275.09375 31.78125 277.480469 33.214844 C 279.871094 34.644531 282.222656 36.132812 284.539062 37.679688 C 286.855469 39.230469 289.128906 40.832031 291.367188 42.492188 C 293.605469 44.148438 295.800781 45.863281 297.953125 47.628906 C 300.105469 49.398438 302.214844 51.214844 304.277344 53.085938 C 306.339844 54.957031 308.355469 56.875 310.324219 58.84375 C 312.296875 60.8125 314.214844 62.832031 316.085938 64.894531 C 317.957031 66.957031 319.773438 69.066406 321.542969 71.21875 C 323.308594 73.371094 325.019531 75.566406 326.679688 77.804688 C 328.339844 80.039062 329.941406 82.316406 331.488281 84.632812 C 333.035156 86.949219 334.527344 89.300781 335.957031 91.6875 C 337.390625 94.078125 338.761719 96.5 340.074219 98.957031 C 341.386719 101.414062 342.640625 103.898438 343.832031 106.417969 C 345.019531 108.933594 346.148438 111.480469 347.214844 114.054688 C 348.28125 116.625 349.28125 119.222656 350.222656 121.847656 C 351.160156 124.46875 352.03125 127.113281 352.839844 129.777344 C 353.648438 132.441406 354.390625 135.125 355.070312 137.828125 C 355.746094 140.527344 356.355469 143.246094 356.898438 145.976562 C 357.441406 148.707031 357.917969 151.453125 358.328125 154.207031 C 358.734375 156.960938 359.078125 159.722656 359.347656 162.496094 C 359.621094 165.269531 359.828125 168.042969 359.964844 170.824219 C 360.101562 173.609375 360.167969 176.390625 360.167969 179.175781 Z M 360.167969 179.175781 " fill-opacity="1" fill-rule="nonzero"/></g><g clip-path="url(#0d1b7623eb)"><path fill="#1b1f28" d="M 331.667969 179.171875 C 331.667969 181.492188 331.609375 183.808594 331.496094 186.125 C 331.382812 188.441406 331.210938 190.753906 330.984375 193.058594 C 330.757812 195.367188 330.472656 197.667969 330.132812 199.960938 C 329.792969 202.253906 329.398438 204.539062 328.945312 206.8125 C 328.492188 209.085938 327.984375 211.347656 327.421875 213.597656 C 326.859375 215.847656 326.238281 218.082031 325.566406 220.300781 C 324.894531 222.519531 324.167969 224.71875 323.386719 226.902344 C 322.605469 229.085938 321.769531 231.246094 320.882812 233.390625 C 319.996094 235.53125 319.054688 237.652344 318.0625 239.746094 C 317.074219 241.84375 316.03125 243.914062 314.9375 245.957031 C 313.84375 248.003906 312.703125 250.019531 311.511719 252.007812 C 310.320312 253.996094 309.078125 255.957031 307.789062 257.882812 C 306.503906 259.8125 305.167969 261.707031 303.785156 263.570312 C 302.40625 265.429688 300.980469 267.257812 299.507812 269.050781 C 298.039062 270.84375 296.523438 272.597656 294.964844 274.316406 C 293.410156 276.035156 291.8125 277.710938 290.171875 279.351562 C 288.53125 280.992188 286.851562 282.589844 285.136719 284.148438 C 283.417969 285.703125 281.660156 287.21875 279.871094 288.6875 C 278.078125 290.160156 276.25 291.585938 274.386719 292.96875 C 272.527344 294.347656 270.628906 295.683594 268.703125 296.972656 C 266.773438 298.257812 264.816406 299.5 262.828125 300.691406 C 260.839844 301.882812 258.820312 303.027344 256.777344 304.117188 C 254.734375 305.210938 252.664062 306.253906 250.566406 307.246094 C 248.46875 308.238281 246.351562 309.175781 244.210938 310.0625 C 242.066406 310.949219 239.90625 311.785156 237.722656 312.566406 C 235.539062 313.347656 233.335938 314.074219 231.117188 314.746094 C 228.898438 315.421875 226.664062 316.039062 224.417969 316.601562 C 222.167969 317.164062 219.90625 317.671875 217.632812 318.125 C 215.359375 318.578125 213.074219 318.972656 210.78125 319.3125 C 208.488281 319.65625 206.1875 319.9375 203.878906 320.164062 C 201.570312 320.394531 199.261719 320.5625 196.945312 320.675781 C 194.628906 320.789062 192.3125 320.847656 189.992188 320.847656 C 187.675781 320.847656 185.355469 320.789062 183.042969 320.675781 C 180.726562 320.5625 178.414062 320.394531 176.105469 320.164062 C 173.800781 319.9375 171.5 319.65625 169.203125 319.3125 C 166.910156 318.972656 164.628906 318.578125 162.355469 318.125 C 160.078125 317.671875 157.816406 317.164062 155.570312 316.601562 C 153.320312 316.039062 151.085938 315.421875 148.867188 314.746094 C 146.648438 314.074219 144.449219 313.347656 142.265625 312.566406 C 140.082031 311.785156 137.917969 310.949219 135.777344 310.0625 C 133.632812 309.175781 131.515625 308.238281 129.417969 307.246094 C 127.324219 306.253906 125.253906 305.210938 123.207031 304.117188 C 121.164062 303.027344 119.148438 301.882812 117.15625 300.691406 C 115.167969 299.5 113.210938 298.257812 111.28125 296.972656 C 109.355469 295.683594 107.460938 294.347656 105.597656 292.96875 C 103.734375 291.585938 101.910156 290.160156 100.117188 288.6875 C 98.324219 287.21875 96.570312 285.703125 94.851562 284.148438 C 93.132812 282.589844 91.453125 280.992188 89.8125 279.351562 C 88.175781 277.710938 86.578125 276.035156 85.019531 274.316406 C 83.460938 272.597656 81.949219 270.84375 80.476562 269.050781 C 79.007812 267.257812 77.582031 265.429688 76.199219 263.570312 C 74.816406 261.707031 73.484375 259.8125 72.195312 257.882812 C 70.90625 255.957031 69.667969 253.996094 68.476562 252.007812 C 67.28125 250.019531 66.140625 248.003906 65.046875 245.957031 C 63.953125 243.914062 62.914062 241.84375 61.921875 239.746094 C 60.929688 237.652344 59.992188 235.53125 59.101562 233.390625 C 58.214844 231.246094 57.382812 229.085938 56.601562 226.902344 C 55.820312 224.71875 55.09375 222.519531 54.417969 220.300781 C 53.746094 218.082031 53.128906 215.847656 52.566406 213.597656 C 52 211.347656 51.492188 209.085938 51.042969 206.8125 C 50.589844 204.539062 50.191406 202.253906 49.851562 199.960938 C 49.511719 197.667969 49.226562 195.367188 49 193.058594 C 48.773438 190.753906 48.601562 188.441406 48.488281 186.125 C 48.375 183.808594 48.320312 181.492188 48.320312 179.171875 C 48.320312 176.855469 48.375 174.539062 48.488281 172.222656 C 48.601562 169.90625 48.773438 167.59375 49 165.289062 C 49.226562 162.980469 49.511719 160.679688 49.851562 158.386719 C 50.191406 156.09375 50.589844 153.808594 51.042969 151.535156 C 51.492188 149.261719 52 147 52.566406 144.75 C 53.128906 142.5 53.746094 140.265625 54.417969 138.046875 C 55.09375 135.828125 55.820312 133.628906 56.601562 131.445312 C 57.382812 129.261719 58.214844 127.101562 59.101562 124.957031 C 59.992188 122.816406 60.929688 120.695312 61.921875 118.601562 C 62.914062 116.503906 63.953125 114.433594 65.046875 112.390625 C 66.140625 110.34375 67.28125 108.328125 68.476562 106.339844 C 69.667969 104.351562 70.90625 102.390625 72.195312 100.464844 C 73.484375 98.535156 74.816406 96.640625 76.199219 94.777344 C 77.582031 92.917969 79.007812 91.089844 80.476562 89.296875 C 81.949219 87.503906 83.460938 85.75 85.019531 84.03125 C 86.578125 82.3125 88.175781 80.636719 89.8125 78.996094 C 91.453125 77.355469 93.132812 75.757812 94.851562 74.199219 C 96.570312 72.644531 98.324219 71.128906 100.117188 69.660156 C 101.910156 68.1875 103.734375 66.761719 105.597656 65.378906 C 107.460938 64 109.355469 62.664062 111.28125 61.375 C 113.210938 60.089844 115.167969 58.847656 117.15625 57.65625 C 119.148438 56.464844 121.164062 55.320312 123.207031 54.230469 C 125.253906 53.136719 127.324219 52.09375 129.417969 51.101562 C 131.515625 50.109375 133.632812 49.171875 135.777344 48.285156 C 137.917969 47.398438 140.082031 46.5625 142.265625 45.78125 C 144.449219 45 146.648438 44.273438 148.867188 43.601562 C 151.085938 42.925781 153.320312 42.308594 155.570312 41.746094 C 157.816406 41.183594 160.078125 40.675781 162.355469 40.222656 C 164.628906 39.769531 166.910156 39.375 169.203125 39.035156 C 171.5 38.691406 173.800781 38.410156 176.105469 38.183594 C 178.414062 37.953125 180.726562 37.785156 183.042969 37.671875 C 185.355469 37.558594 187.675781 37.5 189.992188 37.5 C 192.3125 37.5 194.628906 37.558594 196.945312 37.671875 C 199.261719 37.785156 201.570312 37.953125 203.878906 38.183594 C 206.1875 38.410156 208.488281 38.691406 210.78125 39.035156 C 213.074219 39.375 215.359375 39.769531 217.632812 40.222656 C 219.90625 40.675781 222.167969 41.183594 224.417969 41.746094 C 226.664062 42.308594 228.898438 42.925781 231.117188 43.601562 C 233.335938 44.273438 235.539062 45 237.722656 45.78125 C 239.90625 46.5625 242.066406 47.398438 244.210938 48.285156 C 246.351562 49.171875 248.46875 50.109375 250.566406 51.101562 C 252.664062 52.09375 254.734375 53.136719 256.777344 54.230469 C 258.820312 55.320312 260.839844 56.464844 262.828125 57.65625 C 264.816406 58.847656 266.773438 60.089844 268.703125 61.375 C 270.628906 62.664062 272.527344 64 274.386719 65.378906 C 276.25 66.761719 278.078125 68.1875 279.871094 69.660156 C 281.660156 71.128906 283.417969 72.644531 285.136719 74.199219 C 286.851562 75.757812 288.53125 77.355469 290.171875 78.996094 C 291.8125 80.636719 293.410156 82.3125 294.964844 84.03125 C 296.523438 85.75 298.039062 87.503906 299.507812 89.296875 C 300.980469 91.089844 302.40625 92.917969 303.785156 94.777344 C 305.167969 96.640625 306.503906 98.535156 307.789062 100.464844 C 309.078125 102.390625 310.320312 104.351562 311.511719 106.339844 C 312.703125 108.328125 313.84375 110.34375 314.9375 112.390625 C 316.03125 114.433594 317.074219 116.503906 318.0625 118.601562 C 319.054688 120.695312 319.996094 122.816406 320.882812 124.957031 C 321.769531 127.101562 322.605469 129.261719 323.386719 131.445312 C 324.167969 133.628906 324.894531 135.828125 325.566406 138.046875 C 326.238281 140.265625 326.859375 142.5 327.421875 144.75 C 327.984375 147 328.492188 149.261719 328.945312 151.535156 C 329.398438 153.808594 329.792969 156.09375 330.132812 158.386719 C 330.472656 160.679688 330.757812 162.980469 330.984375 165.289062 C 331.210938 167.59375 331.382812 169.90625 331.496094 172.222656 C 331.609375 174.539062 331.667969 176.855469 331.667969 179.171875 Z M 331.667969 179.171875 " fill-opacity="1" fill-rule="nonzero"/></g><g clip-path="url(#55f59148a4)"><path fill="#dfeaff" d="M 323.4375 148.859375 C 323.4375 150.773438 323.390625 152.691406 323.296875 154.605469 C 323.203125 156.519531 323.058594 158.429688 322.871094 160.335938 C 322.683594 162.242188 322.449219 164.144531 322.167969 166.039062 C 321.886719 167.933594 321.558594 169.820312 321.1875 171.703125 C 320.8125 173.582031 320.394531 175.449219 319.925781 177.308594 C 319.460938 179.167969 318.949219 181.015625 318.394531 182.847656 C 317.839844 184.679688 317.238281 186.5 316.59375 188.304688 C 315.945312 190.109375 315.257812 191.894531 314.523438 193.667969 C 313.789062 195.4375 313.015625 197.1875 312.195312 198.921875 C 311.375 200.652344 310.515625 202.363281 309.609375 204.054688 C 308.707031 205.742188 307.761719 207.410156 306.777344 209.054688 C 305.792969 210.699219 304.769531 212.316406 303.703125 213.910156 C 302.640625 215.503906 301.535156 217.070312 300.394531 218.609375 C 299.253906 220.148438 298.074219 221.65625 296.859375 223.136719 C 295.644531 224.621094 294.390625 226.070312 293.105469 227.488281 C 291.816406 228.910156 290.496094 230.296875 289.140625 231.652344 C 287.789062 233.007812 286.398438 234.328125 284.980469 235.613281 C 283.558594 236.902344 282.109375 238.152344 280.628906 239.367188 C 279.148438 240.585938 277.636719 241.761719 276.097656 242.90625 C 274.558594 244.046875 272.992188 245.148438 271.398438 246.214844 C 269.804688 247.277344 268.1875 248.304688 266.542969 249.289062 C 264.898438 250.273438 263.234375 251.21875 261.542969 252.121094 C 259.851562 253.023438 258.140625 253.886719 256.410156 254.703125 C 254.679688 255.523438 252.925781 256.300781 251.15625 257.035156 C 249.386719 257.765625 247.597656 258.457031 245.792969 259.101562 C 243.988281 259.746094 242.171875 260.347656 240.335938 260.90625 C 238.503906 261.460938 236.65625 261.972656 234.796875 262.4375 C 232.941406 262.902344 231.070312 263.324219 229.191406 263.695312 C 227.3125 264.070312 225.425781 264.398438 223.527344 264.679688 C 221.632812 264.960938 219.730469 265.195312 217.824219 265.382812 C 215.917969 265.570312 214.007812 265.710938 212.09375 265.804688 C 210.179688 265.898438 208.265625 265.945312 206.347656 265.945312 C 204.433594 265.945312 202.515625 265.898438 200.601562 265.804688 C 198.6875 265.710938 196.777344 265.570312 194.871094 265.382812 C 192.964844 265.195312 191.0625 264.960938 189.167969 264.679688 C 187.273438 264.398438 185.386719 264.070312 183.503906 263.695312 C 181.625 263.324219 179.757812 262.902344 177.898438 262.4375 C 176.039062 261.972656 174.195312 261.460938 172.359375 260.90625 C 170.527344 260.347656 168.707031 259.746094 166.902344 259.101562 C 165.097656 258.457031 163.3125 257.765625 161.539062 257.035156 C 159.769531 256.300781 158.019531 255.523438 156.285156 254.703125 C 154.554688 253.886719 152.84375 253.023438 151.152344 252.121094 C 149.464844 251.21875 147.796875 250.273438 146.152344 249.289062 C 144.511719 248.304688 142.890625 247.277344 141.296875 246.214844 C 139.703125 245.148438 138.136719 244.046875 136.597656 242.90625 C 135.058594 241.761719 133.550781 240.585938 132.070312 239.367188 C 130.585938 238.152344 129.136719 236.902344 127.71875 235.613281 C 126.296875 234.328125 124.910156 233.007812 123.554688 231.652344 C 122.199219 230.296875 120.878906 228.910156 119.59375 227.488281 C 118.304688 226.070312 117.054688 224.621094 115.839844 223.136719 C 114.621094 221.65625 113.445312 220.148438 112.300781 218.609375 C 111.160156 217.070312 110.058594 215.503906 108.992188 213.910156 C 107.929688 212.316406 106.902344 210.699219 105.917969 209.054688 C 104.933594 207.410156 103.988281 205.742188 103.085938 204.054688 C 102.183594 202.363281 101.320312 200.652344 100.503906 198.921875 C 99.683594 197.1875 98.90625 195.4375 98.171875 193.667969 C 97.441406 191.894531 96.75 190.109375 96.105469 188.304688 C 95.460938 186.5 94.859375 184.679688 94.300781 182.847656 C 93.746094 181.015625 93.234375 179.167969 92.769531 177.308594 C 92.304688 175.449219 91.882812 173.582031 91.511719 171.703125 C 91.136719 169.820312 90.808594 167.933594 90.527344 166.039062 C 90.246094 164.144531 90.011719 162.242188 89.824219 160.335938 C 89.636719 158.429688 89.496094 156.519531 89.402344 154.605469 C 89.308594 152.691406 89.261719 150.773438 89.261719 148.859375 C 89.261719 146.941406 89.308594 145.027344 89.402344 143.113281 C 89.496094 141.199219 89.636719 139.289062 89.824219 137.382812 C 90.011719 135.476562 90.246094 133.574219 90.527344 131.679688 C 90.808594 129.78125 91.136719 127.894531 91.511719 126.015625 C 91.882812 124.136719 92.304688 122.265625 92.769531 120.410156 C 93.234375 118.550781 93.746094 116.703125 94.300781 114.871094 C 94.859375 113.035156 95.460938 111.21875 96.105469 109.414062 C 96.75 107.609375 97.441406 105.820312 98.171875 104.050781 C 98.90625 102.28125 99.683594 100.53125 100.503906 98.796875 C 101.320312 97.066406 102.183594 95.355469 103.085938 93.664062 C 103.988281 91.972656 104.933594 90.308594 105.917969 88.664062 C 106.902344 87.019531 107.929688 85.402344 108.992188 83.808594 C 110.058594 82.214844 111.160156 80.648438 112.300781 79.109375 C 113.445312 77.570312 114.621094 76.058594 115.839844 74.578125 C 117.054688 73.097656 118.304688 71.648438 119.59375 70.226562 C 120.878906 68.808594 122.199219 67.421875 123.554688 66.066406 C 124.910156 64.710938 126.296875 63.390625 127.71875 62.101562 C 129.136719 60.816406 130.585938 59.5625 132.070312 58.347656 C 133.550781 57.132812 135.058594 55.953125 136.597656 54.8125 C 138.136719 53.671875 139.703125 52.566406 141.296875 51.503906 C 142.890625 50.4375 144.511719 49.414062 146.152344 48.429688 C 147.796875 47.445312 149.464844 46.5 151.152344 45.597656 C 152.84375 44.691406 154.554688 43.832031 156.285156 43.011719 C 158.019531 42.191406 159.769531 41.417969 161.539062 40.683594 C 163.3125 39.949219 165.097656 39.261719 166.902344 38.617188 C 168.707031 37.96875 170.527344 37.367188 172.359375 36.8125 C 174.195312 36.257812 176.039062 35.746094 177.898438 35.28125 C 179.757812 34.8125 181.625 34.394531 183.503906 34.019531 C 185.386719 33.648438 187.273438 33.320312 189.167969 33.039062 C 191.0625 32.757812 192.964844 32.523438 194.871094 32.335938 C 196.777344 32.148438 198.6875 32.007812 200.601562 31.910156 C 202.515625 31.816406 204.433594 31.769531 206.347656 31.769531 C 208.265625 31.769531 210.179688 31.816406 212.09375 31.910156 C 214.007812 32.007812 215.917969 32.148438 217.824219 32.335938 C 219.730469 32.523438 221.632812 32.757812 223.527344 33.039062 C 225.425781 33.320312 227.3125 33.648438 229.191406 34.019531 C 231.070312 34.394531 232.941406 34.8125 234.796875 35.28125 C 236.65625 35.746094 238.503906 36.257812 240.335938 36.8125 C 242.171875 37.367188 243.988281 37.96875 245.792969 38.617188 C 247.597656 39.261719 249.386719 39.949219 251.15625 40.683594 C 252.925781 41.417969 254.679688 42.191406 256.410156 43.011719 C 258.140625 43.832031 259.851562 44.691406 261.542969 45.597656 C 263.234375 46.5 264.898438 47.445312 266.542969 48.429688 C 268.1875 49.414062 269.804688 50.4375 271.398438 51.503906 C 272.992188 52.566406 274.558594 53.671875 276.097656 54.8125 C 277.636719 55.953125 279.148438 57.132812 280.628906 58.347656 C 282.109375 59.5625 283.558594 60.816406 284.980469 62.101562 C 286.398438 63.390625 287.789062 64.710938 289.140625 66.066406 C 290.496094 67.421875 291.816406 68.808594 293.105469 70.226562 C 294.390625 71.648438 295.644531 73.097656 296.859375 74.578125 C 298.074219 76.058594 299.253906 77.570312 300.394531 79.109375 C 301.535156 80.648438 302.640625 82.214844 303.703125 83.808594 C 304.769531 85.402344 305.792969 87.019531 306.777344 88.664062 C 307.761719 90.308594 308.707031 91.972656 309.609375 93.664062 C 310.515625 95.355469 311.375 97.066406 312.195312 98.796875 C 313.015625 100.53125 313.789062 102.28125 314.523438 104.050781 C 315.257812 105.820312 315.945312 107.609375 316.59375 109.414062 C 317.238281 111.21875 317.839844 113.035156 318.394531 114.871094 C 318.949219 116.703125 319.460938 118.550781 319.925781 120.410156 C 320.394531 122.265625 320.8125 124.136719 321.1875 126.015625 C 321.558594 127.894531 321.886719 129.78125 322.167969 131.679688 C 322.449219 133.574219 322.683594 135.476562 322.871094 137.382812 C 323.058594 139.289062 323.203125 141.199219 323.296875 143.113281 C 323.390625 145.027344 323.4375 146.941406 323.4375 148.859375 Z M 323.4375 148.859375 " fill-opacity="1" fill-rule="nonzero"/></g></svg>